<svg xmlns="http://www.w3.org/2000/svg" width="600" height="900" viewBox="0 0 600 900"><defs><linearGradient id="bg" x1="0" y1="0" x2="1" y2="1"><stop offset="0" stop-color="#050505"/><stop offset="0.58" stop-color="#f97316"/><stop offset="1" stop-color="#000"/></linearGradient><radialGradient id="glow" cx="50%" cy="30%" r="65%"><stop offset="0" stop-color="#dc2626" stop-opacity="0.58"/><stop offset="1" stop-color="#000" stop-opacity="0"/></radialGradient><filter id="shadow"><feDropShadow dx="0" dy="18" stdDeviation="18" flood-color="#000" flood-opacity="0.5"/></filter></defs><rect width="600" height="900" fill="url(#bg)"/><rect width="600" height="900" fill="url(#glow)"/><path d="M70 160 C150 80 245 95 310 170 C375 245 472 230 540 155 L540 760 C450 820 360 790 300 710 C240 630 145 650 70 745 Z" fill="#fff" opacity="0.07"/><circle cx="456" cy="190" r="74" fill="#fff" opacity="0.09"/><rect x="42" y="42" width="516" height="816" rx="28" fill="none" stroke="#fff" stroke-opacity="0.22" stroke-width="2"/><text x="60" y="92" fill="#f4c430" font-family="Arial,sans-serif" font-size="24" font-weight="800" letter-spacing="2">MOVIESDEKHO</text><g filter="url(#shadow)"><text x="60" y="410" fill="#fff" font-family="Arial,sans-serif" font-size="62" font-weight="900">Broken Dream</text><text x="60" y="484" fill="#fff" font-family="Arial,sans-serif" font-size="62" font-weight="900">Uprising</text></g><text x="60" y="700" fill="#fff" opacity="0.82" font-family="Arial,sans-serif" font-size="25" font-weight="700">MOVIE - 2021 - IMDb 6.9</text><text x="60" y="742" fill="#fff" opacity="0.66" font-family="Arial,sans-serif" font-size="22">War /  Adventure</text><rect x="60" y="790" width="150" height="42" rx="21" fill="#fff"/><text x="90" y="819" fill="#000" font-family="Arial,sans-serif" font-size="18" font-weight="900">STREAM</text></svg>